<svg xmlns="http://www.w3.org/2000/svg" xmlns:xlink="http://www.w3.org/1999/xlink" width="500" zoomAndPan="magnify" viewBox="0 0 375 374.999991" height="500" preserveAspectRatio="xMidYMid meet" version="1.0"><defs><clipPath id="e915c795ba"><path d="M 1 36 L 363 36 L 363 350.527344 L 1 350.527344 Z M 1 36 " clip-rule="nonzero"/></clipPath></defs><g clip-path="url(#e915c795ba)"><path fill="#48af54" d="M 345.9375 53.1875 C 316.992188 24.253906 258.964844 39.390625 215.386719 57.1875 C 168.484375 76.339844 118.636719 106.792969 94.160156 131.25 C 49.226562 176.164062 46.460938 247.503906 85.871094 295.660156 L 64.402344 317.121094 C 58.785156 322.730469 51.316406 325.820312 43.371094 325.820312 C 35.425781 325.820312 27.957031 322.730469 22.339844 317.113281 C 17.523438 312.296875 9.710938 312.296875 4.894531 317.113281 C 0.078125 321.925781 0.078125 329.734375 4.894531 334.546875 C 15.171875 344.816406 28.835938 350.476562 43.371094 350.476562 C 57.902344 350.476562 71.570312 344.816406 81.847656 334.546875 L 103.316406 313.089844 C 125.835938 331.496094 153.414062 340.699219 180.988281 340.699219 C 212.4375 340.699219 243.878906 328.734375 267.820312 304.8125 C 292.292969 280.351562 322.765625 230.535156 341.929688 183.65625 C 359.742188 140.109375 374.886719 82.117188 345.9375 53.1875 Z M 319.089844 174.332031 C 298.957031 223.582031 269.285156 268.476562 250.375 287.375 C 231.839844 305.902344 207.203125 316.097656 180.988281 316.097656 C 154.773438 316.097656 130.136719 305.894531 111.601562 287.375 C 93.0625 268.851562 82.863281 244.226562 82.863281 218.027344 C 82.863281 191.828125 93.070312 167.207031 111.601562 148.679688 C 130.507812 129.78125 175.429688 100.125 224.707031 80.003906 C 254.460938 67.851562 280.179688 61.664062 299.269531 61.664062 C 306.273438 61.664062 312.375 62.507812 317.460938 64.1875 L 172.878906 208.691406 L 172.878906 154.375 C 172.878906 147.566406 167.351562 142.042969 160.539062 142.042969 C 153.730469 142.042969 148.203125 147.566406 148.203125 154.375 L 148.203125 238.464844 C 148.203125 245.269531 153.726562 250.792969 160.539062 250.792969 C 163.945312 250.792969 167.035156 249.414062 169.269531 247.183594 L 334.914062 81.632812 C 341.183594 100.574219 335.707031 133.691406 319.089844 174.332031 Z M 319.089844 174.332031 " fill-opacity="1" fill-rule="nonzero"/></g></svg>