<svg xmlns="http://www.w3.org/2000/svg" xmlns:xlink="http://www.w3.org/1999/xlink" width="296" zoomAndPan="magnify" viewBox="0 0 222 83.999999" height="112" preserveAspectRatio="xMidYMid meet" version="1.0"><defs><g/><clipPath id="0aeabfbe4f"><path d="M 0 3 L 94 3 L 94 83.929688 L 0 83.929688 Z M 0 3 " clip-rule="nonzero"/></clipPath></defs><g clip-path="url(#0aeabfbe4f)"><path fill="#48af54" d="M 89.253906 7.375 C 81.785156 -0.0742188 66.8125 3.824219 55.570312 8.402344 C 43.46875 13.335938 30.609375 21.175781 24.292969 27.472656 C 12.699219 39.035156 11.988281 57.40625 22.15625 69.804688 L 16.617188 75.328125 C 15.167969 76.773438 13.238281 77.570312 11.191406 77.570312 C 9.140625 77.570312 7.210938 76.773438 5.765625 75.328125 C 4.519531 74.085938 2.503906 74.085938 1.261719 75.328125 C 0.0195312 76.566406 0.0195312 78.578125 1.261719 79.816406 C 3.914062 82.460938 7.441406 83.917969 11.191406 83.917969 C 14.9375 83.917969 18.464844 82.460938 21.117188 79.816406 L 26.65625 74.292969 C 32.464844 79.03125 39.582031 81.398438 46.695312 81.398438 C 54.808594 81.398438 62.921875 78.320312 69.097656 72.160156 C 75.410156 65.863281 83.273438 53.035156 88.21875 40.964844 C 92.8125 29.753906 96.71875 14.824219 89.253906 7.375 Z M 82.324219 38.566406 C 77.128906 51.246094 69.476562 62.804688 64.597656 67.671875 C 59.8125 72.441406 53.457031 75.066406 46.695312 75.066406 C 39.933594 75.066406 33.574219 72.4375 28.792969 67.671875 C 24.011719 62.902344 21.378906 56.5625 21.378906 49.816406 C 21.378906 43.070312 24.011719 36.730469 28.792969 31.960938 C 33.671875 27.09375 45.261719 19.460938 57.972656 14.277344 C 65.652344 11.148438 72.285156 9.558594 77.210938 9.558594 C 79.019531 9.558594 80.59375 9.773438 81.90625 10.207031 L 44.601562 47.410156 L 44.601562 33.425781 C 44.601562 31.675781 43.175781 30.253906 41.417969 30.253906 C 39.660156 30.253906 38.234375 31.675781 38.234375 33.425781 L 38.234375 55.078125 C 38.234375 56.832031 39.660156 58.253906 41.417969 58.253906 C 42.296875 58.253906 43.09375 57.898438 43.671875 57.324219 L 86.410156 14.699219 C 88.023438 19.574219 86.613281 28.101562 82.324219 38.566406 Z M 82.324219 38.566406 " fill-opacity="1" fill-rule="nonzero"/></g><g fill="#ffffff" fill-opacity="1"><g transform="translate(100.584656, 56.999999)"><g><path d="M 18.578125 -8.34375 L 9.265625 -8.34375 L 6.5 0 L 0.609375 0 L 10.59375 -27.6875 L 17.53125 -27.6875 L 27.328125 0 L 21.3125 0 Z M 13.96875 -22.953125 L 10.671875 -12.71875 L 17.171875 -12.71875 Z M 13.96875 -22.953125 "/></g></g></g><g fill="#ffffff" fill-opacity="1"><g transform="translate(126.906509, 56.999999)"><g><path d="M 7.90625 -29.484375 L 7.90625 -6.984375 C 7.90625 -6.046875 7.914062 -5.390625 7.9375 -5.015625 C 8 -4.453125 8.203125 -4.078125 8.546875 -3.890625 C 8.890625 -3.703125 9.519531 -3.632812 10.4375 -3.6875 L 10.4375 0.125 C 9.46875 0.226562 8.328125 0.28125 7.015625 0.28125 C 4.078125 0.28125 2.554688 -0.972656 2.453125 -3.484375 C 2.398438 -4.128906 2.375 -5.253906 2.375 -6.859375 L 2.375 -29.484375 Z M 7.90625 -29.484375 "/></g></g></g><g fill="#ffffff" fill-opacity="1"><g transform="translate(137.29876, 56.999999)"><g><path d="M 7.90625 -29.484375 L 7.90625 -6.984375 C 7.90625 -6.046875 7.914062 -5.390625 7.9375 -5.015625 C 8 -4.453125 8.203125 -4.078125 8.546875 -3.890625 C 8.890625 -3.703125 9.519531 -3.632812 10.4375 -3.6875 L 10.4375 0.125 C 9.46875 0.226562 8.328125 0.28125 7.015625 0.28125 C 4.078125 0.28125 2.554688 -0.972656 2.453125 -3.484375 C 2.398438 -4.128906 2.375 -5.253906 2.375 -6.859375 L 2.375 -29.484375 Z M 7.90625 -29.484375 "/></g></g></g><g fill="#ffffff" fill-opacity="1"><g transform="translate(147.691008, 56.999999)"><g><path d="M 16.65625 -27.53125 C 20.070312 -27.125 22.820312 -25.8125 24.90625 -23.59375 C 27 -21.375 28.046875 -18.242188 28.046875 -14.203125 C 28.046875 -10.140625 26.972656 -6.882812 24.828125 -4.4375 C 22.691406 -1.988281 19.941406 -0.5625 16.578125 -0.15625 C 15.640625 -0.0507812 14.460938 0 13.046875 0 L 3.578125 0 L 3.578125 -27.6875 L 13.125 -27.6875 C 14.539062 -27.6875 15.71875 -27.632812 16.65625 -27.53125 Z M 15.328125 -4.5 C 17.441406 -4.757812 19.113281 -5.734375 20.34375 -7.421875 C 21.570312 -9.109375 22.1875 -11.34375 22.1875 -14.125 C 22.1875 -16.800781 21.582031 -18.914062 20.375 -20.46875 C 19.175781 -22.019531 17.535156 -22.925781 15.453125 -23.1875 C 14.617188 -23.300781 13.628906 -23.359375 12.484375 -23.359375 L 9.109375 -23.359375 L 9.109375 -4.375 L 12.40625 -4.375 C 13.757812 -4.375 14.734375 -4.414062 15.328125 -4.5 Z M 15.328125 -4.5 "/></g></g></g><g fill="#ffffff" fill-opacity="1"><g transform="translate(176.219742, 56.999999)"><g><path d="M 14.921875 0 L 14.53125 -3.125 L 13.484375 -0.84375 C 12.085938 0.09375 10.320312 0.5625 8.1875 0.5625 C 6.226562 0.5625 4.59375 0.015625 3.28125 -1.078125 C 1.976562 -2.179688 1.328125 -3.707031 1.328125 -5.65625 C 1.328125 -8.007812 2.320312 -9.820312 4.3125 -11.09375 C 6.300781 -12.363281 9.222656 -13 13.078125 -13 L 14.4375 -13 L 14.4375 -13.4375 C 14.4375 -14.289062 14.410156 -14.960938 14.359375 -15.453125 C 14.171875 -17.160156 13.078125 -18.015625 11.078125 -18.015625 C 8.859375 -18.015625 7.664062 -16.8125 7.5 -14.40625 L 2.125 -14.359375 C 2.207031 -16.710938 3.097656 -18.554688 4.796875 -19.890625 C 6.492188 -21.234375 8.65625 -21.90625 11.28125 -21.90625 C 16.601562 -21.90625 19.453125 -19.804688 19.828125 -15.609375 C 19.898438 -14.585938 19.9375 -13.488281 19.9375 -12.3125 L 19.9375 -5.421875 C 19.9375 -3.785156 20.070312 -1.976562 20.34375 0 Z M 10.3125 -3.328125 C 11.488281 -3.328125 12.46875 -3.726562 13.25 -4.53125 C 14.039062 -5.332031 14.4375 -6.441406 14.4375 -7.859375 L 14.4375 -9.59375 C 9.519531 -9.9375 7.0625 -8.769531 7.0625 -6.09375 C 7.0625 -4.25 8.144531 -3.328125 10.3125 -3.328125 Z M 10.3125 -3.328125 "/></g></g></g><g fill="#ffffff" fill-opacity="1"><g transform="translate(197.967361, 56.999999)"><g><path d="M 22.75 -21.34375 L 14.171875 0.796875 C 13.046875 3.660156 11.828125 5.644531 10.515625 6.75 C 9.203125 7.863281 7.445312 8.421875 5.25 8.421875 C 4.320312 8.421875 3.492188 8.367188 2.765625 8.265625 L 2.765625 4.453125 C 3.140625 4.503906 3.6875 4.53125 4.40625 4.53125 C 6.3125 4.53125 7.648438 3.582031 8.421875 1.6875 L 8.703125 1 L 0 -21.34375 L 6.171875 -21.34375 L 11.46875 -4.21875 L 16.6875 -21.34375 Z M 22.75 -21.34375 "/></g></g></g></svg>